<svg xmlns="http://www.w3.org/2000/svg" width="32" height="32" viewBox="0 0 32 32"><title>check-circle</title><g fill="#14c125"><g fill="#14c125"><path transform="scale(1,-1) translate(0,-28)" d="M 16 25 C 8.800781 25 3 19.199219 3 12 C 3 4.800781 8.800781 -1 16 -1 C 23.199219 -1 29 4.800781 29 12 C 29 13.398437 28.8125 14.792969 28.3125 16.09375 L 26.6875 14.5 C 26.886719 13.699219 27 12.898437 27 12 C 27 5.898437000000003 22.101563 1 16 1 C 9.898438 1 5 5.898437000000003 5 12 C 5 18.101562 9.898438 23 16 23 C 19 23 21.695313 21.804687 23.59375 19.90625 L 25 21.3125 C 22.699219 23.613281 19.5 25 16 25 z M 27.28125 20.71875 L 16 9.4375 L 11.71875 13.71875 L 10.28125 12.28125 L 15.28125 7.28125 L 16 6.59375 L 16.71875 7.28125 L 28.71875 19.28125 z"></path></g></g></svg>