<svg width="459" height="689" viewBox="0 0 459 689" fill="none" xmlns="http://www.w3.org/2000/svg">
<path d="M229.284 344.316C229.284 281.074 280.554 229.544 344.056 229.544C407.297 229.544 458.828 280.814 458.828 344.316C458.828 407.558 407.558 459.088 344.056 459.088C280.814 459.088 229.284 407.558 229.284 344.316Z" fill="#1ABCFE"/>
<path d="M229.284 0.260254V229.544H344.056C407.297 229.544 458.828 178.274 458.828 114.772C458.828 51.5303 407.558 0 344.056 0H229.284V0.260254Z" fill="#FF7262"/>
<path d="M0 115.032C0 178.274 51.27 229.804 114.772 229.804H229.544V0.260254H114.772C51.27 0.260254 0 51.5303 0 115.032Z" fill="#F24E1E"/>
<path d="M0 344.316C0 407.558 51.27 459.088 114.772 459.088H229.544V229.544H114.772C51.27 229.544 0 281.074 0 344.316Z" fill="#A259FF"/>
<path d="M0 573.6C0 510.358 51.27 458.828 114.772 458.828H229.544V573.6C229.544 636.842 178.274 688.372 114.772 688.372C51.27 688.372 0 637.102 0 573.6Z" fill="#0ACF83"/>
</svg>
