<svg width="2500" height="2500" viewBox="0 0 2500 2500" fill="none" xmlns="http://www.w3.org/2000/svg">
<g clip-path="url(#clip0_16_9)">
<path d="M0 0H2500V2500H0V0Z" fill="#F0DB4F"/>
<path d="M2214.31 1834.64C2196.01 1720.57 2121.63 1624.8 1901.33 1535.44C1824.81 1500.27 1739.5 1475.09 1714.07 1417.1C1705.04 1383.35 1703.85 1364.34 1709.56 1343.9C1725.95 1277.6 1805.09 1256.93 1867.82 1275.94C1908.22 1289.48 1946.48 1320.62 1969.54 1370.28C2077.43 1300.42 2077.19 1300.89 2152.52 1252.89C2124.95 1210.11 2110.22 1190.39 2092.16 1172.09C2027.28 1099.61 1938.88 1062.3 1797.48 1065.15C1773.01 1068.24 1748.29 1071.57 1723.81 1074.66C1653.24 1092.48 1585.98 1129.55 1546.53 1179.22C1428.19 1313.49 1461.93 1548.51 1605.94 1645.24C1747.82 1751.7 1956.23 1775.94 1982.84 1875.51C2008.75 1997.42 1893.26 2036.87 1778.47 2022.85C1693.87 2005.27 1646.82 1962.25 1595.96 1884.07C1502.33 1938.25 1502.33 1938.25 1406.09 1993.62C1428.9 2043.53 1452.9 2066.1 1491.16 2109.35C1672.25 2293.05 2125.43 2284.02 2206.71 2005.98C2210.03 1996.47 2231.9 1932.78 2214.31 1834.64ZM1278 1079.88H1044.16C1044.16 1281.88 1043.21 1482.45 1043.21 1684.45C1043.21 1813.01 1049.86 1930.88 1028.95 1967C994.729 2038.06 906.088 2029.27 865.689 2015.48C824.577 1995.28 803.664 1966.53 779.424 1925.89C772.77 1914.25 767.78 1905.22 766.114 1904.5C702.666 1943.24 639.451 1982.21 576 2020.95C607.609 2085.82 654.184 2142.15 713.833 2178.74C802.949 2232.21 922.721 2248.61 1047.96 2219.85C1129.47 2196.09 1199.81 2146.9 1236.65 2072.04C1289.88 1973.89 1278.47 1855.07 1278 1723.66C1279.18 1509.3 1278 1294.95 1278 1079.88Z" fill="#323330"/>
</g>
<defs>
<clipPath id="clip0_16_9">
<rect width="2500" height="2500" rx="1250" fill="white"/>
</clipPath>
</defs>
</svg>
