<svg width="2260" height="2490" viewBox="0 0 2260 2490" fill="none" xmlns="http://www.w3.org/2000/svg">
<path d="M1027.84 26.7375C1089.56 -8.59049 1169.95 -8.75006 1231.61 26.7375C1541.85 202.039 1852.19 377.066 2162.38 552.473C2220.72 585.337 2259.74 650.266 2259.15 717.491V1772.17C2259.58 1842.18 2216.7 1908.66 2155.15 1940.78C1845.93 2115.12 1536.87 2289.66 1227.7 2464C1164.71 2500.02 1082.7 2497.24 1021.68 2458.27C928.972 2404.53 836.108 2351.05 743.395 2297.37C724.45 2286.07 703.094 2277.08 689.716 2258.71C701.543 2242.77 722.686 2240.79 739.867 2233.83C778.564 2221.52 814.105 2201.77 849.654 2182.61C858.644 2176.45 869.619 2178.81 878.236 2184.32C957.509 2229.77 1036.08 2276.54 1115.62 2321.56C1132.59 2331.36 1149.77 2318.35 1164.27 2310.27C1467.71 2138.77 1771.52 1967.92 2074.91 1796.37C2086.15 1790.96 2092.37 1779.02 2091.45 1766.71C2091.67 1418.79 2091.51 1070.82 2091.56 722.899C2092.85 708.927 2084.76 696.082 2072.13 690.363C1763.98 516.826 1455.99 343.023 1147.9 169.441C1142.56 165.772 1136.24 163.803 1129.76 163.793C1123.28 163.784 1116.95 165.734 1111.6 169.388C803.511 343.023 495.576 516.986 187.482 690.514C174.894 696.241 166.445 708.874 167.943 722.899C167.996 1070.82 167.943 1418.79 167.943 1766.76C167.409 1772.77 168.729 1778.8 171.724 1784.04C174.72 1789.27 179.248 1793.46 184.699 1796.05C266.915 1842.67 349.238 1888.96 431.507 1935.43C477.855 1960.37 534.761 1975.2 585.824 1956.08C630.887 1939.92 662.473 1893.94 661.613 1846.09C662.039 1500.2 661.401 1154.26 661.933 808.431C660.807 793.076 675.372 780.39 690.301 781.835C729.805 781.569 769.362 781.303 808.865 781.941C825.355 781.569 836.702 798.103 834.663 813.573C834.504 1161.65 835.089 1509.73 834.397 1857.81C834.504 1950.58 796.392 2051.52 710.585 2096.91C604.876 2151.67 474.22 2140.05 369.787 2087.54C279.379 2042.42 193.103 1989.17 104.3 1940.82C42.5887 1908.88 -0.079782 1842.14 0.354615 1772.18V717.491C-0.292548 648.874 40.2837 582.766 100.443 550.381C409.61 375.904 718.723 201.294 1027.84 26.7375Z" fill="#8CC84B"/>
<path d="M1297.55 757.323C1432.39 748.643 1576.75 752.181 1698.09 818.608C1792.03 869.512 1844.11 976.347 1845.77 1080.72C1843.15 1094.8 1828.43 1102.56 1814.99 1101.6C1775.87 1101.54 1736.74 1102.13 1697.62 1101.33C1681.02 1101.97 1671.37 1086.67 1669.29 1071.99C1658.05 1022.06 1630.82 972.597 1583.81 948.511C1511.66 912.385 1428 914.202 1349.32 914.956C1291.88 918.005 1230.12 922.979 1181.45 956.755C1144.1 982.34 1132.75 1033.99 1146.08 1075.58C1158.65 1105.45 1193.13 1115.09 1221.34 1123.97C1383.84 1166.47 1556.04 1162.24 1715.43 1218.17C1781.43 1240.98 1845.98 1285.3 1868.57 1354.4C1898.12 1447 1885.17 1557.69 1819.28 1632.04C1765.85 1693.22 1688.03 1726.52 1610.42 1744.6C1507.16 1767.62 1400.01 1768.21 1295.15 1757.99C1196.55 1746.75 1093.95 1720.84 1017.83 1653.66C952.739 1597.15 920.949 1509.09 924.105 1424.1C924.858 1409.74 939.149 1399.73 952.899 1400.91C992.296 1400.59 1031.69 1400.49 1071.09 1400.97C1086.83 1399.84 1098.49 1413.44 1099.3 1428.27C1106.57 1475.85 1124.45 1525.79 1165.94 1554C1246.01 1605.66 1346.48 1602.12 1438.16 1603.56C1514.12 1600.19 1599.39 1599.18 1661.37 1548.97C1694.08 1520.34 1703.77 1472.43 1694.93 1431.21C1685.35 1396.42 1648.95 1380.2 1617.7 1369.6C1457.28 1318.86 1283.16 1337.27 1124.29 1279.88C1059.8 1257.09 997.429 1214 972.651 1147.74C938.076 1053.96 953.918 937.97 1026.71 866.135C1097.69 794.681 1200.14 767.172 1297.55 757.323Z" fill="#8CC84B"/>
</svg>
