<svg width="500" height="150" viewBox="0 0 500 150" fill="none" xmlns="http://www.w3.org/2000/svg">
<ellipse cx="40.5" cy="77" rx="33.5" ry="33" fill="#FFC700"/>
<path d="M106.361 110H97.3281V51.6016C97.3281 47.793 98.0117 44.5866 99.3789 41.9824C100.779 39.3457 102.781 37.36 105.385 36.0254C107.989 34.6582 111.081 33.9746 114.662 33.9746C115.704 33.9746 116.745 34.0397 117.787 34.1699C118.861 34.3001 119.903 34.4954 120.912 34.7559L120.424 42.1289C119.74 41.9661 118.959 41.8522 118.08 41.7871C117.234 41.722 116.387 41.6895 115.541 41.6895C113.62 41.6895 111.96 42.0801 110.561 42.8613C109.193 43.61 108.152 44.7168 107.436 46.1816C106.719 47.6465 106.361 49.4531 106.361 51.6016V110ZM117.592 57.168V64.1016H88.9785V57.168H117.592ZM158.803 100.967V73.7695C158.803 71.6862 158.38 69.8796 157.533 68.3496C156.719 66.7871 155.482 65.5827 153.822 64.7363C152.162 63.89 150.111 63.4668 147.67 63.4668C145.391 63.4668 143.389 63.8574 141.664 64.6387C139.971 65.4199 138.637 66.4453 137.66 67.7148C136.716 68.9844 136.244 70.3516 136.244 71.8164H127.211C127.211 69.9284 127.699 68.0566 128.676 66.2012C129.652 64.3457 131.052 62.6693 132.875 61.1719C134.73 59.6419 136.944 58.4375 139.516 57.5586C142.12 56.6471 145.017 56.1914 148.207 56.1914C152.048 56.1914 155.434 56.8424 158.363 58.1445C161.326 59.4466 163.637 61.416 165.297 64.0527C166.99 66.6569 167.836 69.9284 167.836 73.8672V98.4766C167.836 100.234 167.982 102.106 168.275 104.092C168.601 106.077 169.073 107.786 169.691 109.219V110H160.268C159.812 108.958 159.454 107.575 159.193 105.85C158.933 104.092 158.803 102.464 158.803 100.967ZM160.365 77.9688L160.463 84.3164H151.332C148.76 84.3164 146.465 84.528 144.447 84.9512C142.429 85.3418 140.736 85.944 139.369 86.7578C138.002 87.5716 136.96 88.597 136.244 89.834C135.528 91.0384 135.17 92.4544 135.17 94.082C135.17 95.7422 135.544 97.2559 136.293 98.623C137.042 99.9902 138.165 101.081 139.662 101.895C141.192 102.676 143.064 103.066 145.277 103.066C148.044 103.066 150.486 102.48 152.602 101.309C154.717 100.137 156.394 98.7044 157.631 97.0117C158.9 95.319 159.584 93.6751 159.682 92.0801L163.539 96.4258C163.311 97.793 162.693 99.3066 161.684 100.967C160.674 102.627 159.324 104.222 157.631 105.752C155.971 107.249 153.985 108.503 151.674 109.512C149.395 110.488 146.824 110.977 143.959 110.977C140.378 110.977 137.237 110.277 134.535 108.877C131.866 107.477 129.783 105.605 128.285 103.262C126.82 100.885 126.088 98.2324 126.088 95.3027C126.088 92.4707 126.641 89.9805 127.748 87.832C128.855 85.651 130.45 83.8444 132.533 82.4121C134.617 80.9473 137.123 79.8405 140.053 79.0918C142.982 78.3431 146.254 77.9688 149.867 77.9688H160.365ZM204.164 57.168V64.1016H175.6V57.168H204.164ZM185.268 44.3262H194.301V96.9141C194.301 98.7044 194.577 100.055 195.131 100.967C195.684 101.878 196.4 102.48 197.279 102.773C198.158 103.066 199.102 103.213 200.111 103.213C200.86 103.213 201.641 103.148 202.455 103.018C203.301 102.855 203.936 102.725 204.359 102.627L204.408 110C203.692 110.228 202.748 110.439 201.576 110.635C200.437 110.863 199.053 110.977 197.426 110.977C195.212 110.977 193.178 110.537 191.322 109.658C189.467 108.779 187.986 107.314 186.879 105.264C185.805 103.18 185.268 100.381 185.268 96.8652V44.3262ZM224.574 57.168V110H215.492V57.168H224.574ZM214.809 43.1543C214.809 41.6895 215.248 40.4525 216.127 39.4434C217.038 38.4342 218.373 37.9297 220.131 37.9297C221.856 37.9297 223.174 38.4342 224.086 39.4434C225.03 40.4525 225.502 41.6895 225.502 43.1543C225.502 44.554 225.03 45.7585 224.086 46.7676C223.174 47.7441 221.856 48.2324 220.131 48.2324C218.373 48.2324 217.038 47.7441 216.127 46.7676C215.248 45.7585 214.809 44.554 214.809 43.1543ZM248.109 35V110H239.076V35H248.109ZM245.961 81.582L242.201 81.4355C242.234 77.8223 242.771 74.4857 243.812 71.4258C244.854 68.3333 246.319 65.6478 248.207 63.3691C250.095 61.0905 252.341 59.3327 254.945 58.0957C257.582 56.8262 260.495 56.1914 263.686 56.1914C266.29 56.1914 268.633 56.5495 270.717 57.2656C272.8 57.9492 274.574 59.056 276.039 60.5859C277.536 62.1159 278.676 64.1016 279.457 66.543C280.238 68.9518 280.629 71.8978 280.629 75.3809V110H271.547V75.2832C271.547 72.5163 271.14 70.3027 270.326 68.6426C269.512 66.9499 268.324 65.7292 266.762 64.9805C265.199 64.1992 263.279 63.8086 261 63.8086C258.754 63.8086 256.703 64.2806 254.848 65.2246C253.025 66.1686 251.446 67.4707 250.111 69.1309C248.809 70.791 247.784 72.6953 247.035 74.8438C246.319 76.9596 245.961 79.2057 245.961 81.582ZM294.105 35H303.188V99.7461L302.406 110H294.105V35ZM338.881 83.1445V84.1699C338.881 88.0111 338.425 91.5755 337.514 94.8633C336.602 98.1185 335.268 100.951 333.51 103.359C331.752 105.768 329.604 107.64 327.064 108.975C324.525 110.309 321.612 110.977 318.324 110.977C314.971 110.977 312.025 110.407 309.486 109.268C306.98 108.096 304.864 106.419 303.139 104.238C301.413 102.057 300.03 99.4206 298.988 96.3281C297.979 93.2357 297.279 89.7526 296.889 85.8789V81.3867C297.279 77.4805 297.979 73.9811 298.988 70.8887C300.03 67.7962 301.413 65.1595 303.139 62.9785C304.864 60.765 306.98 59.0885 309.486 57.9492C311.993 56.7773 314.906 56.1914 318.227 56.1914C321.547 56.1914 324.493 56.8424 327.064 58.1445C329.636 59.4141 331.785 61.237 333.51 63.6133C335.268 65.9896 336.602 68.8379 337.514 72.1582C338.425 75.446 338.881 79.1081 338.881 83.1445ZM329.799 84.1699V83.1445C329.799 80.5078 329.555 78.0339 329.066 75.7227C328.578 73.3789 327.797 71.3281 326.723 69.5703C325.648 67.7799 324.232 66.3802 322.475 65.3711C320.717 64.3294 318.552 63.8086 315.98 63.8086C313.702 63.8086 311.716 64.1992 310.023 64.9805C308.363 65.7617 306.947 66.8197 305.775 68.1543C304.604 69.4564 303.643 70.9538 302.895 72.6465C302.178 74.3066 301.641 76.0319 301.283 77.8223V89.5898C301.804 91.8685 302.65 94.0658 303.822 96.1816C305.027 98.265 306.622 99.974 308.607 101.309C310.626 102.643 313.116 103.311 316.078 103.311C318.52 103.311 320.603 102.822 322.328 101.846C324.086 100.837 325.502 99.4531 326.576 97.6953C327.683 95.9375 328.497 93.903 329.018 91.5918C329.538 89.2806 329.799 86.8066 329.799 84.1699ZM381.459 100.967V73.7695C381.459 71.6862 381.036 69.8796 380.189 68.3496C379.376 66.7871 378.139 65.5827 376.479 64.7363C374.818 63.89 372.768 63.4668 370.326 63.4668C368.048 63.4668 366.046 63.8574 364.32 64.6387C362.628 65.4199 361.293 66.4453 360.316 67.7148C359.372 68.9844 358.9 70.3516 358.9 71.8164H349.867C349.867 69.9284 350.355 68.0566 351.332 66.2012C352.309 64.3457 353.708 62.6693 355.531 61.1719C357.387 59.6419 359.6 58.4375 362.172 57.5586C364.776 56.6471 367.673 56.1914 370.863 56.1914C374.704 56.1914 378.09 56.8424 381.02 58.1445C383.982 59.4466 386.293 61.416 387.953 64.0527C389.646 66.6569 390.492 69.9284 390.492 73.8672V98.4766C390.492 100.234 390.639 102.106 390.932 104.092C391.257 106.077 391.729 107.786 392.348 109.219V110H382.924C382.468 108.958 382.11 107.575 381.85 105.85C381.589 104.092 381.459 102.464 381.459 100.967ZM383.021 77.9688L383.119 84.3164H373.988C371.417 84.3164 369.122 84.528 367.104 84.9512C365.085 85.3418 363.393 85.944 362.025 86.7578C360.658 87.5716 359.617 88.597 358.9 89.834C358.184 91.0384 357.826 92.4544 357.826 94.082C357.826 95.7422 358.201 97.2559 358.949 98.623C359.698 99.9902 360.821 101.081 362.318 101.895C363.848 102.676 365.72 103.066 367.934 103.066C370.701 103.066 373.142 102.48 375.258 101.309C377.374 100.137 379.05 98.7044 380.287 97.0117C381.557 95.319 382.24 93.6751 382.338 92.0801L386.195 96.4258C385.967 97.793 385.349 99.3066 384.34 100.967C383.331 102.627 381.98 104.222 380.287 105.752C378.627 107.249 376.641 108.503 374.33 109.512C372.051 110.488 369.48 110.977 366.615 110.977C363.035 110.977 359.893 110.277 357.191 108.877C354.522 107.477 352.439 105.605 350.941 103.262C349.477 100.885 348.744 98.2324 348.744 95.3027C348.744 92.4707 349.298 89.9805 350.404 87.832C351.511 85.651 353.106 83.8444 355.189 82.4121C357.273 80.9473 359.779 79.8405 362.709 79.0918C365.639 78.3431 368.91 77.9688 372.523 77.9688H383.021ZM426.82 57.168V64.1016H398.256V57.168H426.82ZM407.924 44.3262H416.957V96.9141C416.957 98.7044 417.234 100.055 417.787 100.967C418.34 101.878 419.057 102.48 419.936 102.773C420.814 103.066 421.758 103.213 422.768 103.213C423.516 103.213 424.298 103.148 425.111 103.018C425.958 102.855 426.592 102.725 427.016 102.627L427.064 110C426.348 110.228 425.404 110.439 424.232 110.635C423.093 110.863 421.71 110.977 420.082 110.977C417.868 110.977 415.834 110.537 413.979 109.658C412.123 108.779 410.642 107.314 409.535 105.264C408.461 103.18 407.924 100.381 407.924 96.8652V44.3262ZM469.74 97.793V57.168H478.822V110H470.18L469.74 97.793ZM471.449 86.6602L475.209 86.5625C475.209 90.0781 474.835 93.3333 474.086 96.3281C473.37 99.2904 472.198 101.862 470.57 104.043C468.943 106.224 466.811 107.933 464.174 109.17C461.537 110.374 458.331 110.977 454.555 110.977C451.983 110.977 449.623 110.602 447.475 109.854C445.359 109.105 443.536 107.949 442.006 106.387C440.476 104.824 439.288 102.79 438.441 100.283C437.628 97.7767 437.221 94.7656 437.221 91.25V57.168H446.254V91.3477C446.254 93.724 446.514 95.6934 447.035 97.2559C447.589 98.7858 448.321 100.007 449.232 100.918C450.176 101.797 451.218 102.415 452.357 102.773C453.529 103.132 454.734 103.311 455.971 103.311C459.812 103.311 462.855 102.578 465.102 101.113C467.348 99.6159 468.959 97.6139 469.936 95.1074C470.945 92.5684 471.449 89.7526 471.449 86.6602Z" fill="black"/>
</svg>
